name kv06_filtered_grf.mot
datacolumns 37
datarows 14
range 0.002500 0.009000
endheader
time	1_ground_force_vx	1_ground_force_vy	1_ground_force_vz	1_ground_force_px	1_ground_force_py	1_ground_force_pz	1_ground_torque_x	1_ground_torque_y	1_ground_torque_z	2_ground_force_vx	2_ground_force_vy	2_ground_force_vz	2_ground_force_px	2_ground_force_py	2_ground_force_pz	2_ground_torque_x	2_ground_torque_y	2_ground_torque_z	3_ground_force_vx	3_ground_force_vy	3_ground_force_vz	3_ground_force_px	3_ground_force_py	3_ground_force_pz	3_ground_torque_x	3_ground_torque_y	3_ground_torque_z	4_ground_force_vx	4_ground_force_vy	4_ground_force_vz	4_ground_force_px	4_ground_force_py	4_ground_force_pz	4_ground_torque_x	4_ground_torque_y	4_ground_torque_z
            0.002500	           -0.000017	            0.000059	            0.000144	            0.206426	            0.000000	            1.812841	           -0.000054	            0.000024	           -0.000011	            0.000000	            0.000000	            0.000000	           -0.205683	            0.000000	            0.253889	            0.000000	           -0.000000	            0.000000	           -0.929821	            0.823661	           -0.686527	            0.386823	            0.970512	            1.074349	           -0.011944	            0.053298	            0.044298	           -1.897721	            0.014523	           -0.605215	           -0.368780	            0.969475	            1.107980	           -0.061402	           -0.022544	           -0.025392
            0.003000	           -0.000018	            0.000061	            0.000148	            0.206426	            0.000000	            1.812841	           -0.000056	            0.000024	           -0.000011	            0.000000	            0.000000	            0.000000	           -0.205683	            0.000000	            0.253889	            0.000000	           -0.000000	            0.000000	           -0.826368	            0.750917	           -0.666311	            0.386823	            0.970512	            1.074349	           -0.011331	            0.050681	            0.041066	           -1.795580	            0.016838	           -0.635873	           -0.368780	            0.969475	            1.107980	           -0.057375	           -0.019512	           -0.026509
            0.003500	           -0.000018	            0.000063	            0.000153	            0.206426	            0.000000	            1.812841	           -0.000057	            0.000024	           -0.000011	            0.000000	            0.000000	            0.000000	           -0.205683	            0.000000	            0.253889	            0.000000	           -0.000000	            0.000000	           -0.722631	            0.678993	           -0.646790	            0.386817	            0.970514	            1.074348	           -0.010720	            0.048128	            0.037885	           -1.694683	            0.018222	           -0.666628	           -0.368784	            0.969475	            1.107980	           -0.053422	           -0.016382	           -0.027705
            0.004000	           -0.000019	            0.000065	            0.000156	            0.206426	            0.000000	            1.812841	           -0.000058	            0.000024	           -0.000011	            0.000000	            0.000000	            0.000000	           -0.205683	            0.000000	            0.253889	            0.000000	           -0.000000	            0.000000	           -0.618857	            0.608040	           -0.627991	            0.386811	            0.970515	            1.074348	           -0.010112	            0.045644	            0.034761	           -1.595223	            0.018689	           -0.697393	           -0.368789	            0.969475	            1.107981	           -0.049548	           -0.013163	           -0.028977
            0.004500	           -0.000020	            0.000066	            0.000160	            0.206426	            0.000000	            1.812841	           -0.000059	            0.000023	           -0.000012	            0.000000	            0.000000	            0.000000	           -0.205683	            0.000000	            0.253889	            0.000000	           -0.000000	            0.000000	           -0.515292	            0.538206	           -0.609938	            0.386804	            0.970517	            1.074347	           -0.009509	            0.043233	            0.031702	           -1.497391	            0.018263	           -0.728074	           -0.368793	            0.969475	            1.107981	           -0.045760	           -0.009865	           -0.030317
            0.005000	           -0.000020	            0.000068	            0.000162	            0.206426	            0.000000	            1.812841	           -0.000060	            0.000023	           -0.000012	            0.000000	            0.000000	            0.000000	           -0.205683	            0.000000	            0.253889	            0.000000	           -0.000000	           -0.000000	           -0.412177	            0.469629	           -0.592657	            0.386798	            0.970519	            1.074346	           -0.008913	            0.040896	            0.028714	           -1.401367	            0.016970	           -0.758569	           -0.368797	            0.969475	            1.107982	           -0.042066	           -0.006498	           -0.031720
            0.005500	           -0.000021	            0.000069	            0.000164	            0.206426	            0.000000	            1.812841	           -0.000061	            0.000022	           -0.000012	            0.000000	            0.000000	            0.000000	           -0.205683	            0.000000	            0.253889	            0.000000	           -0.000000	           -0.000000	           -0.309751	            0.402449	           -0.576166	            0.386792	            0.970520	            1.074346	           -0.008325	            0.038638	            0.025804	           -1.307328	            0.014843	           -0.788766	           -0.368802	            0.969475	            1.107982	           -0.038471	           -0.003073	           -0.033178
            0.006000	           -0.000021	            0.000069	            0.000165	            0.206426	            0.000000	            1.812841	           -0.000061	            0.000021	           -0.000012	            0.000000	           -0.000000	            0.000000	           -0.205683	            0.000000	            0.253889	            0.000000	           -0.000000	           -0.000000	           -0.208249	            0.336788	           -0.560489	            0.386786	            0.970522	            1.074345	           -0.007746	            0.036462	            0.022977	           -1.215436	            0.011925	           -0.818555	           -0.368806	            0.969475	            1.107983	           -0.034981	            0.000397	           -0.034684
            0.006500	           -0.000022	            0.000070	            0.000165	            0.206426	            0.000000	            1.812841	           -0.000061	            0.000020	           -0.000012	            0.000000	           -0.000000	            0.000000	           -0.205683	            0.000000	            0.253889	            0.000000	           -0.000000	           -0.000000	           -0.107898	            0.272769	           -0.545641	            0.386780	            0.970523	            1.074344	           -0.007179	            0.034370	            0.020240	           -1.125847	            0.008261	           -0.847813	           -0.368810	            0.969475	            1.107983	           -0.031601	            0.003900	           -0.036229
            0.007000	           -0.000022	            0.000070	            0.000165	            0.206426	            0.000000	            1.812841	           -0.000061	            0.000019	           -0.000012	            0.000000	           -0.000000	            0.000000	           -0.205683	            0.000000	            0.253889	            0.000000	           -0.000000	           -0.000000	           -0.008919	            0.210502	           -0.531638	            0.386774	            0.970525	            1.074343	           -0.006624	            0.032363	            0.017599	           -1.038706	            0.003905	           -0.876411	           -0.368814	            0.969476	            1.107984	           -0.028336	            0.007420	           -0.037802
            0.007500	           -0.000022	            0.000070	            0.000164	            0.206426	            0.000000	            1.812841	           -0.000060	            0.000018	           -0.000012	            0.000000	           -0.000000	            0.000000	           -0.205683	            0.000000	            0.253889	            0.000000	           -0.000000	           -0.000000	            0.088476	            0.150093	           -0.518496	            0.386768	            0.970526	            1.074343	           -0.006084	            0.030443	            0.015057	           -0.954150	           -0.001085	           -0.904212	           -0.368818	            0.969476	            1.107985	           -0.025191	            0.010944	           -0.039395
            0.008000	           -0.000022	            0.000069	            0.000161	            0.206426	            0.000000	            1.812841	           -0.000059	            0.000016	           -0.000012	            0.000000	           -0.000000	            0.000000	           -0.205683	            0.000000	            0.253889	            0.000000	           -0.000000	           -0.000000	            0.184084	            0.091640	           -0.506223	            0.386763	            0.970528	            1.074342	           -0.005560	            0.028612	            0.012622	           -0.872310	           -0.006648	           -0.931065	           -0.368822	            0.969476	            1.107985	           -0.022170	            0.014454	           -0.040996
            0.008500	           -0.000022	            0.000068	            0.000158	            0.206426	            0.000000	            1.812841	           -0.000058	            0.000015	           -0.000011	            0.000000	           -0.000000	            0.000000	           -0.205683	            0.000000	            0.253889	           -0.000000	           -0.000000	           -0.000000	            0.277710	            0.035225	           -0.494833	            0.386758	            0.970529	            1.074341	           -0.005053	            0.026871	            0.010296	           -0.793294	           -0.012709	           -0.956826	           -0.368826	            0.969476	            1.107986	           -0.019276	            0.017933	           -0.042592
            0.009000	           -0.000022	            0.000067	            0.000154	            0.206426	            0.000000	            1.812841	           -0.000057	            0.000013	           -0.000011	            0.000000	           -0.000000	            0.000000	           -0.205683	            0.000000	            0.253889	           -0.000000	           -0.000000	           -0.000000	            0.369171	           -0.019074	           -0.484334	            0.386752	            0.970530	            1.074340	           -0.004564	            0.025219	            0.008083	           -0.717205	           -0.019191	           -0.981336	           -0.368830	            0.969477	            1.107987	           -0.016513	            0.021364	           -0.044172
